<svg xmlns="http://www.w3.org/2000/svg" viewBox="0 0 240 32" fill="none" role="img" aria-label="BuildMyVision">
  <defs>
    <linearGradient id="bmv-grad" x1="0" y1="0" x2="32" y2="32" gradientUnits="userSpaceOnUse">
      <stop offset="0%" stop-color="oklch(0.52 0.22 270)" />
      <stop offset="60%" stop-color="oklch(0.62 0.2 290)" />
      <stop offset="100%" stop-color="oklch(0.78 0.16 70)" />
    </linearGradient>
  </defs>
  <rect x="0" y="2" width="28" height="28" rx="8" fill="url(#bmv-grad)" />
  <path d="M8 22 L8 10 L13 10 Q17 10 17 13 Q17 15 15 16 Q18 16.5 18 19 Q18 22 14 22 Z M11 14.5 L13 14.5 Q14 14.5 14 13.5 Q14 12.5 13 12.5 L11 12.5 Z M11 19.5 L14 19.5 Q15 19.5 15 18.5 Q15 17.5 14 17.5 L11 17.5 Z" fill="white" />
  <path d="M22 10 L22 22" stroke="white" stroke-width="1.6" stroke-linecap="round" />
  <text x="38" y="22" font-family="Geist, ui-sans-serif, system-ui" font-size="18" font-weight="700" letter-spacing="-0.02em" fill="currentColor">buildmyvision</text>
</svg>
