<svg xmlns="http://www.w3.org/2000/svg" viewBox="0 0 32 32" fill="none" role="img" aria-label="BuildMyVision">
  <defs>
    <linearGradient id="bmv-mark-grad" x1="0" y1="0" x2="32" y2="32" gradientUnits="userSpaceOnUse">
      <stop offset="0%" stop-color="oklch(0.52 0.22 270)" />
      <stop offset="60%" stop-color="oklch(0.62 0.2 290)" />
      <stop offset="100%" stop-color="oklch(0.78 0.16 70)" />
    </linearGradient>
  </defs>
  <rect x="2" y="2" width="28" height="28" rx="8" fill="url(#bmv-mark-grad)" />
  <path d="M10 22 L10 10 L15 10 Q19 10 19 13 Q19 15 17 16 Q20 16.5 20 19 Q20 22 16 22 Z M13 14.5 L15 14.5 Q16 14.5 16 13.5 Q16 12.5 15 12.5 L13 12.5 Z M13 19.5 L16 19.5 Q17 19.5 17 18.5 Q17 17.5 16 17.5 L13 17.5 Z" fill="white" />
  <path d="M24 10 L24 22" stroke="white" stroke-width="1.6" stroke-linecap="round" />
</svg>
