<svg xmlns="http://www.w3.org/2000/svg" viewBox="0 0 800 600" role="img" aria-label="Coaching-Landing Vorschau">
  <defs>
    <linearGradient id="coach-bg" x1="0" y1="0" x2="0" y2="600">
      <stop offset="0%" stop-color="#ecfdf5" />
      <stop offset="100%" stop-color="#f0fdfa" />
    </linearGradient>
  </defs>
  <rect width="800" height="600" fill="url(#coach-bg)" />
  <rect x="40" y="40" width="120" height="20" rx="4" fill="#0f766e" />
  <rect x="80" y="160" width="640" height="36" rx="8" fill="#0f172a" />
  <rect x="160" y="210" width="480" height="36" rx="8" fill="#0f766e" />
  <rect x="220" y="280" width="180" height="44" rx="22" fill="#0f766e" />
  <rect x="420" y="280" width="160" height="44" rx="22" fill="#fff" stroke="#0f766e" stroke-width="2" />
  <g transform="translate(60, 380)">
    <rect width="220" height="180" rx="14" fill="#fff" stroke="#a7f3d0" />
    <circle cx="40" cy="40" r="20" fill="#0f766e" />
    <rect x="20" y="80" width="120" height="12" rx="4" fill="#0f172a" />
    <rect x="20" y="100" width="180" height="10" rx="3" fill="#94a3b8" />
    <rect x="20" y="120" width="160" height="10" rx="3" fill="#94a3b8" />
  </g>
  <g transform="translate(290, 380)">
    <rect width="220" height="180" rx="14" fill="#fff" stroke="#a7f3d0" />
    <circle cx="40" cy="40" r="20" fill="#0d9488" />
    <rect x="20" y="80" width="120" height="12" rx="4" fill="#0f172a" />
    <rect x="20" y="100" width="180" height="10" rx="3" fill="#94a3b8" />
    <rect x="20" y="120" width="160" height="10" rx="3" fill="#94a3b8" />
  </g>
  <g transform="translate(520, 380)">
    <rect width="220" height="180" rx="14" fill="#fff" stroke="#a7f3d0" />
    <circle cx="40" cy="40" r="20" fill="#14b8a6" />
    <rect x="20" y="80" width="120" height="12" rx="4" fill="#0f172a" />
    <rect x="20" y="100" width="180" height="10" rx="3" fill="#94a3b8" />
    <rect x="20" y="120" width="160" height="10" rx="3" fill="#94a3b8" />
  </g>
</svg>
