<svg xmlns="http://www.w3.org/2000/svg" viewBox="0 0 800 600" role="img" aria-label="E-Commerce-Shop Vorschau">
  <rect width="800" height="600" fill="#fef3c7" />
  <rect width="800" height="160" fill="#1c1917" />
  <rect x="40" y="60" width="120" height="20" rx="4" fill="#fef3c7" />
  <rect x="640" y="60" width="120" height="32" rx="8" fill="#fcd34d" />
  <g transform="translate(50, 200)">
    <rect width="220" height="280" rx="14" fill="#fff" />
    <rect x="20" y="20" width="180" height="180" rx="10" fill="#fde68a" />
    <rect x="20" y="220" width="120" height="14" rx="4" fill="#1c1917" />
    <rect x="20" y="244" width="80" height="10" rx="3" fill="#a3a3a3" />
  </g>
  <g transform="translate(290, 200)">
    <rect width="220" height="280" rx="14" fill="#fff" />
    <rect x="20" y="20" width="180" height="180" rx="10" fill="#fbbf24" />
    <rect x="20" y="220" width="140" height="14" rx="4" fill="#1c1917" />
    <rect x="20" y="244" width="80" height="10" rx="3" fill="#a3a3a3" />
  </g>
  <g transform="translate(530, 200)">
    <rect width="220" height="280" rx="14" fill="#fff" />
    <rect x="20" y="20" width="180" height="180" rx="10" fill="#f59e0b" />
    <rect x="20" y="220" width="100" height="14" rx="4" fill="#1c1917" />
    <rect x="20" y="244" width="80" height="10" rx="3" fill="#a3a3a3" />
  </g>
  <rect x="40" y="520" width="720" height="60" rx="12" fill="#1c1917" />
  <rect x="320" y="540" width="160" height="20" rx="4" fill="#fef3c7" />
</svg>
