<svg xmlns="http://www.w3.org/2000/svg" viewBox="0 0 800 600" role="img" aria-label="Restaurant-Webseite Vorschau">
  <rect width="800" height="600" fill="#1c1917" />
  <rect x="0" y="0" width="800" height="320" fill="#7c2d12" />
  <rect x="0" y="0" width="800" height="320" fill="url(#restaurant-grad)" />
  <defs>
    <linearGradient id="restaurant-grad" x1="0" y1="0" x2="0" y2="320">
      <stop offset="0%" stop-color="#7c2d12" stop-opacity="0.4" />
      <stop offset="100%" stop-color="#1c1917" stop-opacity="0.95" />
    </linearGradient>
  </defs>
  <rect x="40" y="40" width="100" height="20" rx="4" fill="#fef3c7" />
  <rect x="240" y="180" width="320" height="36" rx="8" fill="#fef3c7" />
  <rect x="280" y="240" width="240" height="18" rx="6" fill="#fed7aa" />
  <rect x="320" y="290" width="160" height="40" rx="20" fill="#f59e0b" />
  <g transform="translate(40, 380)">
    <rect width="240" height="180" rx="14" fill="#292524" />
    <rect x="20" y="20" width="80" height="80" rx="10" fill="#f59e0b" />
    <rect x="120" y="30" width="100" height="12" rx="3" fill="#fef3c7" />
    <rect x="120" y="50" width="80" height="10" rx="3" fill="#a8a29e" />
    <rect x="120" y="80" width="60" height="10" rx="3" fill="#fbbf24" />
  </g>
  <g transform="translate(300, 380)">
    <rect width="240" height="180" rx="14" fill="#292524" />
    <rect x="20" y="20" width="80" height="80" rx="10" fill="#dc2626" />
    <rect x="120" y="30" width="100" height="12" rx="3" fill="#fef3c7" />
    <rect x="120" y="50" width="80" height="10" rx="3" fill="#a8a29e" />
    <rect x="120" y="80" width="60" height="10" rx="3" fill="#fbbf24" />
  </g>
  <g transform="translate(560, 380)">
    <rect width="200" height="180" rx="14" fill="#f59e0b" />
    <rect x="20" y="20" width="120" height="14" rx="4" fill="#1c1917" />
    <rect x="20" y="44" width="160" height="10" rx="3" fill="#1c1917" opacity="0.6" />
    <rect x="20" y="120" width="160" height="40" rx="8" fill="#1c1917" />
    <rect x="60" y="132" width="80" height="16" rx="4" fill="#fef3c7" />
  </g>
</svg>
