<svg xmlns="http://www.w3.org/2000/svg" viewBox="0 0 800 600" role="img" aria-label="SaaS-Dashboard Vorschau">
  <rect width="800" height="600" fill="#f8fafc" />
  <rect width="180" height="600" fill="#fff" />
  <rect x="20" y="30" width="40" height="14" rx="4" fill="#1e293b" />
  <g fill="#cbd5e1">
    <rect x="20" y="80" width="140" height="10" rx="4" />
    <rect x="20" y="110" width="120" height="10" rx="4" />
    <rect x="20" y="140" width="130" height="10" rx="4" />
    <rect x="20" y="170" width="110" height="10" rx="4" />
  </g>
  <rect x="20" y="74" width="140" height="22" rx="6" fill="#eef2ff" />
  <rect x="20" y="80" width="6" height="10" rx="3" fill="#6366f1" />
  <g transform="translate(210, 30)">
    <rect width="560" height="36" rx="8" fill="#fff" stroke="#e2e8f0" />
  </g>
  <g transform="translate(210, 90)">
    <rect width="130" height="80" rx="10" fill="#fff" stroke="#e2e8f0" />
    <rect x="14" y="14" width="60" height="8" rx="3" fill="#94a3b8" />
    <rect x="14" y="32" width="80" height="16" rx="4" fill="#1e293b" />
    <rect x="14" y="58" width="50" height="8" rx="3" fill="#22c55e" />
  </g>
  <g transform="translate(350, 90)">
    <rect width="130" height="80" rx="10" fill="#fff" stroke="#e2e8f0" />
    <rect x="14" y="14" width="60" height="8" rx="3" fill="#94a3b8" />
    <rect x="14" y="32" width="80" height="16" rx="4" fill="#1e293b" />
    <rect x="14" y="58" width="50" height="8" rx="3" fill="#22c55e" />
  </g>
  <g transform="translate(490, 90)">
    <rect width="130" height="80" rx="10" fill="#fff" stroke="#e2e8f0" />
    <rect x="14" y="14" width="60" height="8" rx="3" fill="#94a3b8" />
    <rect x="14" y="32" width="80" height="16" rx="4" fill="#1e293b" />
    <rect x="14" y="58" width="50" height="8" rx="3" fill="#ef4444" />
  </g>
  <g transform="translate(630, 90)">
    <rect width="140" height="80" rx="10" fill="#fff" stroke="#e2e8f0" />
    <rect x="14" y="14" width="60" height="8" rx="3" fill="#94a3b8" />
    <rect x="14" y="32" width="80" height="16" rx="4" fill="#1e293b" />
    <rect x="14" y="58" width="50" height="8" rx="3" fill="#22c55e" />
  </g>
  <g transform="translate(210, 190)">
    <rect width="560" height="180" rx="10" fill="#fff" stroke="#e2e8f0" />
    <rect x="20" y="20" width="120" height="10" rx="4" fill="#1e293b" />
    <g transform="translate(20, 60)">
      <rect x="0" y="80" width="30" height="80" rx="3" fill="#a78bfa" />
      <rect x="40" y="60" width="30" height="100" rx="3" fill="#a78bfa" />
      <rect x="80" y="40" width="30" height="120" rx="3" fill="#8b5cf6" />
      <rect x="120" y="50" width="30" height="110" rx="3" fill="#8b5cf6" />
      <rect x="160" y="30" width="30" height="130" rx="3" fill="#7c3aed" />
      <rect x="200" y="20" width="30" height="140" rx="3" fill="#7c3aed" />
      <rect x="240" y="35" width="30" height="125" rx="3" fill="#6d28d9" />
      <rect x="280" y="10" width="30" height="150" rx="3" fill="#6d28d9" />
      <rect x="320" y="20" width="30" height="140" rx="3" fill="#5b21b6" />
      <rect x="360" y="0" width="30" height="160" rx="3" fill="#5b21b6" />
      <rect x="400" y="5" width="30" height="155" rx="3" fill="#4c1d95" />
      <rect x="440" y="-5" width="30" height="165" rx="3" fill="#4c1d95" />
    </g>
  </g>
  <g transform="translate(210, 390)">
    <rect width="560" height="180" rx="10" fill="#fff" stroke="#e2e8f0" />
    <rect x="20" y="20" width="120" height="10" rx="4" fill="#1e293b" />
    <line x1="20" y1="50" x2="540" y2="50" stroke="#e2e8f0" />
    <g fill="#cbd5e1">
      <rect x="20" y="68" width="100" height="10" rx="3" />
      <rect x="180" y="68" width="60" height="10" rx="3" />
      <rect x="280" y="68" width="50" height="10" rx="3" />
      <rect x="380" y="68" width="80" height="10" rx="3" />
      <rect x="20" y="102" width="100" height="10" rx="3" />
      <rect x="180" y="102" width="60" height="10" rx="3" />
      <rect x="280" y="102" width="50" height="10" rx="3" />
      <rect x="380" y="102" width="80" height="10" rx="3" />
      <rect x="20" y="136" width="100" height="10" rx="3" />
      <rect x="180" y="136" width="60" height="10" rx="3" />
      <rect x="280" y="136" width="50" height="10" rx="3" />
      <rect x="380" y="136" width="80" height="10" rx="3" />
    </g>
  </g>
</svg>
